<svg xmlns="http://www.w3.org/2000/svg" viewBox="0 0 64 64">
  <circle cx="32" cy="32" r="30" fill="#f7931a" stroke="#fff" stroke-width="2"/>
  <path fill="#fff" d="M46.5 27c.3-2-1.2-3-3.3-3.7l.7-2.7-1.6-.4-.6 2.6c-.4-.1-.9-.2-1.3-.3l.6-2.5-1.6-.4-.7 2.7c-.3-.1-.7-.2-1-.3l-2.2-.6.4-1.6s1.3.3 1.3.3c.7.2.9.6.8 1l-.8 3.1c.1 0 .1 0 .2-.1l-.2.8c0 .4-.2.6-.6.6l-.2.1.1 1.7 1.7.4c.3.1.6.1.9 0l.9-3.4c.5.1 1 .2 1.5.3l-.9 3.3 1.6.4.7-2.8c1 .2 1.8.1 2.4-.4.6-.5.8-1.3.7-2.1zm-4 1.5c-.4 1.6-3.1.8-4 .6l.7-2.8c.9.2 3.7.7 3.3 2.2zm.4-1.6c-.4 1.5-2.5.7-3.2.6l.6-2.5c.7.2 2.8.6 2.6 1.9zM32 16c-8.8 0-16 7.2-16 16s7.2 16 16 16 16-7.2 16-16-7.2-16-16-16zm0 28c-6.6 0-12-5.4-12-12s5.4-12 12-12 12 5.4 12 12-5.4 12-12 12z"/>
</svg>
